<svg xmlns="http://www.w3.org/2000/svg" width="1em" height="1em" viewBox="0 2.4 24 24"><path fill="white" d="M5 23.4q-.825 0-1.413-.587T3 21.4v-14q0-.825.588-1.413T5 5.4h5v2H5v14h14v-5.35l2 2v3.35q0 .825-.588 1.413T19 23.4H5Zm1-4l3-4l2.25 3l3-4l3.75 5H6Zm15.55-3.6l-3.1-3.1q-.525.35-1.125.525t-1.275.175q-1.85 0-3.15-1.312T11.6 8.9q0-1.875 1.313-3.188T16.1 4.4q1.875 0 3.188 1.313T20.6 8.9q0 .675-.2 1.3t-.5 1.15l3.05 3.05l-1.4 1.4Zm-5.45-4.4q1.05 0 1.775-.725T18.6 8.9q0-1.05-.725-1.775T16.1 6.4q-1.05 0-1.775.725T13.6 8.9q0 1.05.725 1.775t1.775.725Z"/></svg>